<svg width="106" height="15" viewBox="0 0 106 15" fill="none" xmlns="http://www.w3.org/2000/svg">
<path d="M7.61859 14.5665C10.8371 14.5665 12.9559 13.2639 12.9559 10.6565V10.6163C12.9559 8.70253 11.9367 7.74362 10.2883 7.11239C11.3075 6.54147 12.1618 5.64488 12.1618 4.03665V3.99644C12.1618 3.01944 11.8362 2.22337 11.1848 1.57203C10.3707 0.757864 9.0861 0.30957 7.45777 0.30957H1.60582C1.18165 0.30957 0.837891 0.653331 0.837891 1.0775V13.8006C0.837891 14.2248 1.18165 14.5686 1.60582 14.5686H7.61859V14.5665ZM3.89152 3.05764H6.98736C8.31214 3.05764 9.04389 3.58634 9.04389 4.52515V4.56535C9.04389 5.62478 8.16741 6.07307 6.78232 6.07307H3.88951V3.05764H3.89152ZM3.89152 8.68042H7.51808C9.12832 8.68042 9.83996 9.27144 9.83996 10.2283V10.2685C9.83996 11.328 9.00569 11.8165 7.6206 11.8165H3.89353V8.68042H3.89152Z" fill="black"/>
<path d="M21.427 11.3679H27.4558L28.5655 14.0878C28.6841 14.3773 28.9636 14.5663 29.2752 14.5663H30.8794C31.4302 14.5663 31.8001 14.0054 31.585 13.4988L26.127 0.673169C26.0064 0.389719 25.729 0.206787 25.4214 0.206787H23.5438C23.2362 0.206787 22.9588 0.389719 22.8382 0.673169L17.3803 13.4988C17.1652 14.0054 17.5371 14.5663 18.0859 14.5663H19.6077C19.9193 14.5663 20.2007 14.3773 20.3173 14.0878L21.427 11.3679ZM24.4424 3.97407L26.3361 8.59773H22.5467L24.4424 3.97407Z" fill="black"/>
<path d="M40.7816 10.0027H43.2462L46.0746 14.2244C46.2174 14.4374 46.4566 14.5641 46.7119 14.5641H48.5151C49.1323 14.5641 49.4962 13.8726 49.1484 13.364L46.4868 9.47204C48.3 8.8006 49.5424 7.35319 49.5424 5.05141V5.0112C49.5424 3.66632 49.1142 2.54659 48.3201 1.75253C47.3833 0.815733 45.9782 0.307129 44.1649 0.307129H38.4134C37.9893 0.307129 37.6455 0.650884 37.6455 1.07505V13.7982C37.6455 14.2223 37.9893 14.5661 38.4134 14.5661H40.0156C40.4398 14.5661 40.7836 14.2223 40.7836 13.7982V10.0027H40.7816ZM40.7816 3.13963H43.8975C45.4253 3.13963 46.3621 3.83318 46.3621 5.17605V5.21625C46.3621 6.4184 45.4856 7.23257 43.9578 7.23257H40.7795V3.13963H40.7816Z" fill="black"/>
<path d="M59.4123 5.50202L66.0865 14.2629C66.2312 14.4538 66.4564 14.5644 66.6976 14.5644H68.2194C68.6435 14.5644 68.9873 14.2206 68.9873 13.7965V1.07536C68.9873 0.651187 68.6435 0.307432 68.2194 0.307432H66.6574C66.2332 0.307432 65.8894 0.651187 65.8894 1.07536V9.08636L59.4384 0.608976C59.2937 0.417998 59.0665 0.30542 58.8273 0.30542H57.0824C56.6582 0.30542 56.3145 0.649181 56.3145 1.07335V13.7965C56.3145 14.2206 56.6582 14.5644 57.0824 14.5644H58.6444C59.0685 14.5644 59.4123 14.2206 59.4123 13.7965V5.50202Z" fill="black"/>
<path d="M86.4745 11.7761H79.5008V8.78281H85.4552C85.8794 8.78281 86.2232 8.43905 86.2232 8.01488V6.75845C86.2232 6.33428 85.8794 5.99052 85.4552 5.99052H79.5008V3.09771H86.3719C86.7961 3.09771 87.1399 2.75395 87.1399 2.32978V1.07335C87.1399 0.649181 86.7961 0.30542 86.3719 0.30542H77.1507C76.7266 0.30542 76.3828 0.649181 76.3828 1.07335V13.7965C76.3828 14.2206 76.7266 14.5644 77.1507 14.5644H86.4725C86.8966 14.5644 87.2404 14.2206 87.2404 13.7965V12.54C87.2404 12.1199 86.8966 11.7761 86.4745 11.7761Z" fill="black"/>
<path d="M97.2396 10.0027H99.7042L102.533 14.2244C102.675 14.4374 102.915 14.5641 103.17 14.5641H104.973C105.59 14.5641 105.954 13.8726 105.606 13.364L102.945 9.47204C104.758 8.8006 106 7.35319 106 5.05141V5.0112C106 3.66632 105.572 2.54659 104.778 1.75253C103.841 0.815733 102.436 0.307129 100.623 0.307129H94.8714C94.4473 0.307129 94.1035 0.650884 94.1035 1.07505V13.7982C94.1035 14.2223 94.4473 14.5661 94.8714 14.5661H96.4736C96.8978 14.5661 97.2416 14.2223 97.2416 13.7982V10.0027H97.2396ZM97.2396 3.13963H100.356C101.883 3.13963 102.82 3.83318 102.82 5.17605V5.21625C102.82 6.4184 101.944 7.23257 100.416 7.23257H97.2375V3.13963H97.2396Z" fill="black"/>
</svg>
